<svg width="108" height="46" viewBox="0 0 108 46" fill="none" xmlns="http://www.w3.org/2000/svg">
<path d="M3.08135 45.4571V44.3323H0.269653V39.9883H0.73185V43.9444H2.58064V39.9883H3.04283V43.9444H3.54355V45.4571H3.08135Z" fill="#333333"/>
<path d="M6.00857 44.4486C5.46934 44.4486 5.04566 44.2159 4.69901 43.828C4.39088 43.4014 4.23682 42.8584 4.23682 42.199C4.23682 41.5397 4.39088 40.9966 4.69901 40.57C5.00714 40.1434 5.39231 39.9106 5.93154 39.9106C6.47077 39.9106 6.85593 40.1434 7.16406 40.57C7.43368 40.9966 7.58774 41.5397 7.58774 42.199V42.3542H4.77605C4.77605 42.8584 4.93011 43.285 5.16121 43.5953C5.39231 43.9056 5.70044 44.0995 6.12412 44.0995C6.5478 44.0995 6.89445 43.9056 7.20258 43.5177L7.47219 43.7892C7.01 44.2159 6.5478 44.4486 6.00857 44.4486ZM7.08703 41.9663C7.08703 41.5396 6.97148 41.1518 6.7789 40.8027C6.58632 40.4536 6.27819 40.2985 5.89302 40.2985C5.62341 40.2985 5.39231 40.3761 5.23824 40.57C5.04566 40.7639 4.93011 40.9579 4.85308 41.2294C4.77605 41.4621 4.73753 41.7336 4.73753 42.0051H7.08703V41.9663Z" fill="#333333"/>
<path d="M9.01286 44.3323H8.55066V39.9883H9.01286V41.8888H10.8616V39.9883H11.3238V44.3323H10.8616V42.2766H9.01286V44.3323Z" fill="#333333"/>
<path d="M13.6349 44.3323H13.1727V40.415H12.1713V40.0271H14.6363V40.415H13.6349V44.3323Z" fill="#333333"/>
<path d="M17.1013 44.4486C16.8702 44.4486 16.6777 44.371 16.4466 44.2547C16.254 44.1383 16.0614 43.9444 15.9458 43.6729V46H15.4836V39.9882H15.9458V40.6476C16.0614 40.4149 16.254 40.2209 16.4466 40.1046C16.6391 39.9494 16.8702 39.9106 17.1013 39.9106C17.5635 39.9106 17.9487 40.1046 18.2183 40.5312C18.4879 40.9579 18.642 41.5009 18.642 42.199C18.642 42.8972 18.4879 43.4402 18.2183 43.8668C17.9487 44.2547 17.602 44.4486 17.1013 44.4486ZM17.0243 44.0607C17.4095 44.0607 17.6791 43.8668 17.8717 43.5177C18.0642 43.1687 18.1413 42.7032 18.1413 42.1602C18.1413 41.6172 18.0642 41.1518 17.8717 40.8027C17.6791 40.4536 17.4095 40.2597 17.0243 40.2597C16.7932 40.2597 16.6006 40.3373 16.408 40.4924C16.2155 40.6476 16.0614 40.8415 15.9844 41.0742V43.2074C16.0614 43.4402 16.2155 43.5953 16.408 43.7892C16.6006 43.9444 16.8317 44.0607 17.0243 44.0607Z" fill="#333333"/>
<path d="M24.381 44.3323H23.9188V40.4149H22.07V44.3323H21.6078V39.9883H24.3425V44.3323H24.381Z" fill="#333333"/>
<path d="M27.1156 44.4486C26.5763 44.4486 26.1912 44.2158 25.883 43.7892C25.5749 43.3626 25.4594 42.8195 25.4594 42.1602C25.4594 41.5008 25.6134 40.9578 25.883 40.5312C26.1912 40.1045 26.5763 39.8718 27.1156 39.8718C27.6548 39.8718 28.0399 40.1045 28.3481 40.5312C28.6562 40.9578 28.7718 41.5008 28.7718 42.1602C28.7718 42.8195 28.6177 43.3626 28.3481 43.7892C28.0399 44.2158 27.6548 44.4486 27.1156 44.4486ZM27.1156 44.0607C27.5007 44.0607 27.8089 43.8668 28.0014 43.5177C28.194 43.1686 28.3096 42.7032 28.3096 42.199C28.3096 41.6948 28.194 41.2293 28.0014 40.8803C27.8089 40.5312 27.5007 40.3373 27.1156 40.3373C26.7304 40.3373 26.4608 40.5312 26.2297 40.8803C26.0371 41.2293 25.9215 41.6948 25.9215 42.199C25.9215 42.7032 26.0371 43.1686 26.2297 43.5177C26.4223 43.8668 26.7304 44.0607 27.1156 44.0607Z" fill="#333333"/>
<path d="M30.274 44.3323H29.8118V39.9883H30.274V43.479L32.1228 39.9883H32.585V44.3323H32.1228V40.8028L30.274 44.3323Z" fill="#333333"/>
<path d="M35.358 44.4486C34.8188 44.4486 34.4337 44.2158 34.1255 43.7892C33.8174 43.3626 33.6633 42.8195 33.6633 42.1602C33.6633 41.5008 33.8174 40.9578 34.1255 40.5312C34.4337 40.1045 34.8573 39.8718 35.358 39.8718C35.8202 39.8718 36.2054 40.0658 36.5135 40.4536L36.2439 40.7639C36.0128 40.4536 35.7047 40.2985 35.358 40.2985C34.9729 40.2985 34.6648 40.4924 34.4337 40.8415C34.2026 41.1905 34.1255 41.656 34.1255 42.1602C34.1255 42.7032 34.2411 43.1298 34.4337 43.5177C34.6648 43.8668 34.9729 44.0607 35.358 44.0607C35.7047 44.0607 36.0128 43.9056 36.2439 43.5953L36.5135 43.9056C36.2439 44.2546 35.8202 44.4486 35.358 44.4486Z" fill="#333333"/>
<path d="M40.4037 44.3323H39.8645L38.5549 42.2767L37.8616 43.13V44.3711H37.3994V40.0271H37.8616V42.5482L39.8645 40.0271H40.4037L38.8245 42.0052L40.4037 44.3323Z" fill="#333333"/>
<path d="M43.8702 44.3322H43.408V43.828C43.1384 44.2158 42.7532 44.4098 42.291 44.4098C41.9444 44.4098 41.6362 44.2934 41.3666 44.0219C41.1355 43.7504 40.9814 43.4013 40.9814 42.9747C40.9814 42.548 41.097 42.199 41.3666 41.9275C41.5977 41.656 41.9058 41.5396 42.291 41.5396C42.7917 41.5396 43.1384 41.7335 43.408 42.1214V41.2681C43.408 40.9578 43.3309 40.6863 43.1769 40.5312C43.0228 40.376 42.7917 40.2597 42.5221 40.2597C42.0984 40.2597 41.7518 40.4536 41.4051 40.8027L41.174 40.4924C41.5592 40.0658 42.0214 39.8718 42.5606 39.8718C42.9843 39.8718 43.2924 39.9882 43.5235 40.2209C43.7546 40.4536 43.8702 40.8027 43.8702 41.2293V44.3322ZM42.4066 44.0995C42.8687 44.0995 43.1769 43.9056 43.408 43.4789V42.5093C43.1769 42.0826 42.8687 41.8887 42.4066 41.8887C42.0984 41.8887 41.8673 42.005 41.7133 42.199C41.5592 42.3929 41.4436 42.6644 41.4436 42.9747C41.4436 43.285 41.5207 43.5565 41.7133 43.7504C41.8673 43.9831 42.0984 44.0995 42.4066 44.0995Z" fill="#333333"/>
<path d="M49.8403 44.3323H49.3781V40.4149H47.5293V44.3323H47.0671V39.9883H49.8018V44.3323H49.8403Z" fill="#333333"/>
<path d="M52.6904 44.4486C52.4593 44.4486 52.2668 44.371 52.0357 44.2547C51.8431 44.1383 51.6505 43.9444 51.5349 43.6729V46H51.0728V39.9882H51.5349V40.6476C51.6505 40.4149 51.8431 40.2209 52.0357 40.1046C52.2282 39.9494 52.4593 39.9106 52.6904 39.9106C53.1526 39.9106 53.5378 40.1046 53.8074 40.5312C54.077 40.9579 54.2311 41.5009 54.2311 42.199C54.2311 42.8972 54.077 43.4402 53.8074 43.8668C53.5378 44.2547 53.1912 44.4486 52.6904 44.4486ZM52.6134 44.0607C52.9986 44.0607 53.2682 43.8668 53.4608 43.5177C53.6533 43.1687 53.7304 42.7032 53.7304 42.1602C53.7304 41.6172 53.6533 41.1518 53.4608 40.8027C53.2682 40.4536 52.9986 40.2597 52.6134 40.2597C52.3823 40.2597 52.1897 40.3373 51.9971 40.4924C51.8046 40.6476 51.6505 40.8415 51.5735 41.0742V43.2074C51.6505 43.4402 51.8046 43.5953 51.9971 43.7892C52.1897 43.9444 52.3823 44.0607 52.6134 44.0607Z" fill="#333333"/>
<path d="M56.7347 44.4486C56.1955 44.4486 55.8103 44.2158 55.5022 43.7892C55.194 43.3626 55.0785 42.8195 55.0785 42.1602C55.0785 41.5008 55.2326 40.9578 55.5022 40.5312C55.8103 40.1045 56.1955 39.8718 56.7347 39.8718C57.2739 39.8718 57.6591 40.1045 57.9672 40.5312C58.2753 40.9578 58.3909 41.5008 58.3909 42.1602C58.3909 42.8195 58.2368 43.3626 57.9672 43.7892C57.6591 44.2158 57.2354 44.4486 56.7347 44.4486ZM56.7347 44.0607C57.1199 44.0607 57.428 43.8668 57.6206 43.5177C57.8131 43.1686 57.9287 42.7032 57.9287 42.199C57.9287 41.6948 57.8131 41.2293 57.6206 40.8803C57.428 40.5312 57.1199 40.3373 56.7347 40.3373C56.3495 40.3373 56.0799 40.5312 55.8488 40.8803C55.6562 41.2293 55.5407 41.6948 55.5407 42.199C55.5407 42.7032 55.6562 43.1686 55.8488 43.5177C56.0414 43.8668 56.3495 44.0607 56.7347 44.0607Z" fill="#333333"/>
<path d="M62.2041 44.3323H61.7419V40.4149H59.8931V44.3323H59.4309V39.9883H62.1656V44.3323H62.2041Z" fill="#333333"/>
<path d="M66.1327 44.3322H65.6705V43.828C65.4009 44.2158 65.0158 44.4098 64.5536 44.4098C64.2069 44.4098 63.8988 44.2934 63.6292 44.0219C63.3981 43.7504 63.244 43.4013 63.244 42.9747C63.244 42.548 63.3596 42.199 63.6292 41.9275C63.8603 41.656 64.1684 41.5396 64.5536 41.5396C65.0543 41.5396 65.4009 41.7335 65.6705 42.1214V41.2681C65.6705 40.9578 65.5935 40.6863 65.4394 40.5312C65.2854 40.376 65.0543 40.2597 64.7462 40.2597C64.3225 40.2597 63.9758 40.4536 63.6292 40.8027L63.3981 40.4924C63.7833 40.0658 64.2454 39.8718 64.7847 39.8718C65.2084 39.8718 65.5165 39.9882 65.7476 40.2209C65.9787 40.4536 66.0942 40.8027 66.0942 41.2293V44.3322H66.1327ZM64.6691 44.0995C65.1313 44.0995 65.4395 43.9056 65.6705 43.4789V42.5093C65.4395 42.0826 65.1313 41.8887 64.6691 41.8887C64.361 41.8887 64.1299 42.005 63.9758 42.199C63.8218 42.3929 63.7062 42.6644 63.7062 42.9747C63.7062 43.285 63.7833 43.5565 63.9758 43.7504C64.1299 43.9831 64.361 44.0995 64.6691 44.0995Z" fill="#333333"/>
<path d="M69.06 44.3323H67.4038V39.9883H69.0215C69.3682 39.9883 69.6378 40.1046 69.8304 40.2986C70.0229 40.4925 70.1385 40.764 70.1385 41.1131C70.1385 41.6173 69.9074 41.9276 69.4837 42.0827C69.6763 42.1603 69.8689 42.2766 69.9844 42.4706C70.1 42.6645 70.177 42.8972 70.177 43.1299C70.177 43.5178 70.0615 43.7893 69.8689 43.9832C69.7148 44.2547 69.4452 44.3323 69.06 44.3323ZM68.9445 41.9276C69.1756 41.9276 69.3682 41.85 69.4837 41.7336C69.5993 41.5785 69.6763 41.4234 69.6763 41.1906C69.6763 40.9579 69.5993 40.764 69.4837 40.6476C69.3682 40.4925 69.1756 40.4537 68.9445 40.4537H67.8275V41.9664H68.9445V41.9276ZM68.983 43.9444C69.2526 43.9444 69.4452 43.8669 69.5607 43.7117C69.6763 43.5566 69.7533 43.3627 69.7533 43.0911C69.7533 42.8584 69.6763 42.6645 69.5607 42.5094C69.4452 42.3542 69.2526 42.2766 68.983 42.2766H67.8275V43.9444H68.983Z" fill="#333333"/>
<path d="M75.4536 39.9883H75.9158V44.3323H71.4094V39.9883H71.8716V43.9444H73.4508V39.9883H73.913V43.9444H75.4922V39.9883H75.4536Z" fill="#333333"/>
<path d="M77.6106 44.3323H77.1484V39.9883H77.6106V43.479L79.4209 39.9883H79.8831V44.3323H79.4209V40.8028L77.6106 44.3323Z" fill="#333333"/>
<path d="M83.9273 44.3323H83.4266L82.3481 42.4706L81.2696 44.3323H80.7689L82.117 42.1215L80.846 39.9883H81.3467L82.3481 41.7724L83.3495 39.9883H83.8502L82.5792 42.1215L83.9273 44.3323Z" fill="#333333"/>
<path d="M86.1613 44.4487V44.0608C86.3538 44.0608 86.5464 43.9445 86.662 43.673C86.7775 43.4015 86.8931 42.936 86.9701 42.2379L87.2012 40.0271H89.3966V44.3711H88.9344V40.4537H87.5864L87.4323 42.2767C87.3553 43.0912 87.2012 43.6342 87.0086 43.9833C86.816 44.2935 86.5464 44.4487 86.1613 44.4487Z" fill="#333333"/>
<path d="M93.5563 44.4486C93.0556 44.4486 92.6319 44.2547 92.3623 43.828C92.0542 43.4014 91.9001 42.8972 91.9001 42.2766H91.1298V44.3322H90.6676V39.9882H91.1298V41.8887H91.9001C91.9387 41.3069 92.0927 40.8415 92.4008 40.4536C92.709 40.0658 93.0941 39.9106 93.5563 39.9106C94.0956 39.9106 94.4807 40.1434 94.7889 40.57C95.097 40.9966 95.2125 41.5397 95.2125 42.199C95.2125 42.8584 95.0585 43.4014 94.7889 43.828C94.4807 44.2159 94.0956 44.4486 93.5563 44.4486ZM92.6705 43.4789C92.863 43.828 93.1712 44.0219 93.5563 44.0219C93.9415 44.0219 94.2496 43.828 94.4422 43.4789C94.6348 43.1299 94.7504 42.6644 94.7504 42.1602C94.7504 41.656 94.6348 41.1906 94.4422 40.8415C94.2496 40.4924 93.9415 40.2985 93.5563 40.2985C93.1712 40.2985 92.863 40.4924 92.6705 40.8415C92.4779 41.1906 92.3623 41.656 92.3623 42.1602C92.3623 42.7032 92.4779 43.1299 92.6705 43.4789Z" fill="#333333"/>
<path d="M95.8289 45.4571V43.9833C96.06 43.9445 96.214 43.8281 96.3296 43.5954C96.4451 43.3627 96.5607 42.8973 96.6377 42.2379L96.8688 40.0271H99.0642V43.9833H99.5649V45.4959H99.1027V44.3711H96.2911V45.4959H95.8289V45.4571ZM97.254 40.415L97.0614 42.2767C96.9843 43.13 96.7918 43.7118 96.5222 43.9445H98.602V40.415H97.254Z" fill="#333333"/>
<path d="M102.03 44.4486C101.491 44.4486 101.067 44.2159 100.721 43.828C100.412 43.4014 100.258 42.8584 100.258 42.199C100.258 41.5397 100.412 40.9966 100.721 40.57C101.029 40.1434 101.414 39.9106 101.953 39.9106C102.492 39.9106 102.877 40.1434 103.186 40.57C103.455 40.9966 103.609 41.5397 103.609 42.199V42.3542H100.798C100.798 42.8584 100.913 43.285 101.183 43.5953C101.414 43.9056 101.722 44.0995 102.146 44.0995C102.569 44.0995 102.916 43.9056 103.224 43.5177L103.494 43.7892C103.031 44.2159 102.569 44.4486 102.03 44.4486ZM103.109 41.9663C103.109 41.5396 102.993 41.1518 102.8 40.8027C102.608 40.4536 102.3 40.2985 101.915 40.2985C101.645 40.2985 101.414 40.3761 101.26 40.57C101.067 40.7639 100.952 40.9579 100.875 41.2294C100.798 41.4621 100.759 41.7336 100.759 42.0051H103.109V41.9663Z" fill="#333333"/>
<path d="M105.034 44.3323H104.572V39.9883H105.034V43.479L106.844 39.9883H107.307V44.3323H106.844V40.8028L105.034 44.3323ZM107.268 38.7471C106.922 39.1738 106.498 39.4065 105.959 39.4065C105.419 39.4065 104.996 39.1738 104.649 38.7471L104.919 38.5144C105.188 38.8635 105.535 39.0574 105.959 39.0574C106.382 39.0574 106.729 38.8635 106.999 38.5144L107.268 38.7471Z" fill="#333333"/>
<path fill-rule="evenodd" clip-rule="evenodd" d="M49.7632 0H84.1198V35.2563H49.7632V0Z" fill="#FF6600"/>
<path d="M47.1056 3.52954V31.1838H40.5193V8.88199H33.0856V31.1838H26.5378V3.52954H47.1056Z" fill="#333333"/>
<path d="M108 31.1839H101.414V8.88202H97.7546C97.4079 14.506 96.9072 18.9275 96.1754 22.2243C95.4436 25.5211 94.4807 27.9259 93.2482 29.3997C92.0156 30.8736 90.3979 31.6493 88.3951 31.6493C87.1626 31.6493 86.1611 31.4554 85.3523 31.1063V25.6763C85.853 25.8314 86.3537 25.909 86.8544 25.909C88.241 25.909 89.3195 24.1248 90.0898 20.5953C90.8601 17.027 91.4379 11.3643 91.8616 3.56836H108.038V31.1839H108Z" fill="#333333"/>
<path d="M77.2253 6.08936V29.4384H70.6005V10.5885H63.2054V29.4384H56.6576V6.08936H77.2253Z" fill="#333333"/>
<path d="M15.2525 35.2564H21.3381L24.2268 25.9865H20.5292V3.52954H13.9429V25.8314H6.54779V3.52954H0V31.1838H17.7175L15.2525 35.2564Z" fill="#333333"/>
</svg>
