<?xml version="1.0" encoding="utf-8"?><svg xmlns="http://www.w3.org/2000/svg" xmlns:xlink="http://www.w3.org/1999/xlink"><symbol viewBox="0 0 22 24" id="basket" xmlns="http://www.w3.org/2000/svg"><g clip-path="url(#aa)"><path d="M10.363 18.443a2.046 2.046 0 00-2.045 2.042 2.046 2.046 0 004.09 0 2.046 2.046 0 00-2.045-2.042zm6.134 0a2.046 2.046 0 00-2.045 2.042 2.046 2.046 0 004.089 0 2.046 2.046 0 00-2.044-2.042zm3.978-8.199L7.413 6.891a.614.614 0 00-.75.73L8.67 16.4h-.786L5.482 5.895a.613.613 0 00-.474-.464l-4.27-.882A.614.614 0 00.489 5.75l3.885.802L6.797 17.15a.613.613 0 00.598.477h12.07a.615.615 0 00.607-.53l.858-6.175a.613.613 0 00-.455-.678zm-8.14 3.91a.613.613 0 01-1.227 0v-2.696a.613.613 0 011.227 0v2.696zm2.625 0a.613.613 0 01-1.227 0v-1.88a.613.613 0 011.227 0v1.88zm2.625 0a.613.613 0 01-1.227 0v-1.226a.613.613 0 011.227 0v1.226z"/></g><path fill-rule="evenodd" clip-rule="evenodd" d="M16.268 4.568a2.996 2.996 0 00-1.693-.523c-.627 0-1.21.193-1.693.523-.28-.843-.492-1.752-.492-2.383C12.39.98 13.37 0 14.575 0s2.185.98 2.185 2.185c0 .631-.212 1.54-.492 2.383zm-4.722 2.274l.024.006v-.011l-.024.005zm4.972 1.217c-1.333-.33-2.766-.681-4.129-1.013a2.185 2.185 0 114.129 1.013zm4.436 1.103c-.866-.217-2.155-.538-3.618-.9a2.995 2.995 0 00.243-1.425c.87.18 1.762.45 2.308.765.596.344.969.928 1.067 1.56zM9.869 6.439c-.36-.086-.706-.167-1.03-.243a2.19 2.19 0 01-.376-2.667 2.188 2.188 0 013.147-.7c.098.738.338 1.599.61 2.353a3.01 3.01 0 00-.449.774c-.628.113-1.305.278-1.902.483zm10.124.075a3.43 3.43 0 01-.217.114c-.696-.295-1.587-.526-2.397-.672a3.01 3.01 0 00-.449-.774c.262-.727.494-1.553.599-2.273.095-.067.189-.128.278-.18a2.188 2.188 0 012.986.8 2.188 2.188 0 01-.8 2.985z"/><defs><clipPath id="aa"><path transform="translate(0 3.064)" d="M0 0h20.936v20.936H0z"/></clipPath></defs></symbol><symbol viewBox="0 0 344.96 344.96" id="check" xmlns="http://www.w3.org/2000/svg"><g data-name="Слой 2"><path class="bcls-1" d="M321.85 86.24l-40-23.11-23.1-40H212.5L172.48 0l-40 23.11H86.24l-23.11 40-40 23.1v46.21L0 172.48l23.11 40v46.21l40 23.11 23.11 40h46.21l40 23.1 40-23.11h46.21l23.11-40 40-23.11V212.5l23.11-40-23.11-40V86.24zM156.91 243.07a16.79 16.79 0 01-23.34 0l-50.45-50.44a16.19 16.19 0 010-22.89l13.35-13.35a16.19 16.19 0 0122.89 0l25.87 25.87 80.34-80.35a16.19 16.19 0 0122.89 0l13.35 13.35a16.19 16.19 0 010 22.89z" data-name="Capa 1"/></g></symbol><symbol viewBox="0 0 24 24" id="fb" xmlns="http://www.w3.org/2000/svg"><path d="M13.397 20.997v-8.196h2.765l.411-3.209h-3.176V7.548c0-.926.258-1.56 1.587-1.56h1.684v-2.86A22.108 22.108 0 0014.201 3c-2.444 0-4.122 1.492-4.122 4.231v2.355H7.332v3.21h2.753v8.201h3.312z"/></symbol><symbol viewBox="0 0 24 24" id="instagram" xmlns="http://www.w3.org/2000/svg"><path d="M11.999 7.377a4.624 4.624 0 100 9.248 4.624 4.624 0 000-9.248zm0 7.627a3.004 3.004 0 110-6.008 3.004 3.004 0 010 6.008zm4.807-6.719a1.078 1.078 0 100-2.156 1.078 1.078 0 000 2.156z"/><path d="M20.533 6.11A4.605 4.605 0 0017.9 3.48a6.607 6.607 0 00-2.186-.42c-.963-.042-1.268-.054-3.71-.054s-2.755 0-3.71.054a6.554 6.554 0 00-2.184.42 4.6 4.6 0 00-2.633 2.63 6.585 6.585 0 00-.419 2.186c-.043.962-.056 1.267-.056 3.71 0 2.442 0 2.753.056 3.71.015.748.156 1.486.419 2.187a4.61 4.61 0 002.634 2.632 6.583 6.583 0 002.185.45c.963.042 1.268.055 3.71.055s2.755 0 3.71-.055a6.616 6.616 0 002.186-.42 4.613 4.613 0 002.633-2.632c.263-.7.404-1.438.419-2.186.043-.962.056-1.267.056-3.71s0-2.753-.056-3.71a6.583 6.583 0 00-.421-2.217zm-1.218 9.533a5.046 5.046 0 01-.311 1.688 2.987 2.987 0 01-1.712 1.71c-.535.2-1.1.305-1.67.312-.95.044-1.218.055-3.654.055-2.438 0-2.687 0-3.655-.055a4.961 4.961 0 01-1.67-.311 2.984 2.984 0 01-1.718-1.711 5.08 5.08 0 01-.311-1.67c-.043-.95-.053-1.217-.053-3.653 0-2.437 0-2.686.053-3.655a5.038 5.038 0 01.311-1.687c.305-.79.93-1.41 1.719-1.712a5.01 5.01 0 011.669-.311c.95-.043 1.218-.055 3.655-.055s2.687 0 3.654.055a4.96 4.96 0 011.67.31 2.99 2.99 0 011.712 1.713 5.06 5.06 0 01.311 1.669c.043.95.054 1.218.054 3.655 0 2.436 0 2.698-.043 3.654h-.011v-.001z"/></symbol><symbol viewBox="0 0 16 16" id="telegram" xmlns="http://www.w3.org/2000/svg"><path d="M14.629 3.698l-2.012 9.618c-.152.679-.548.848-1.11.528l-3.066-2.29-1.48 1.442c-.163.166-.3.305-.616.305l.22-3.165 5.683-5.204c.247-.223-.054-.347-.384-.123L4.839 9.29l-3.024-.959c-.658-.208-.67-.667.137-.986L13.78 2.727c.548-.208 1.027.124.849.971z"/></symbol><symbol viewBox="0 0 24 24" id="topnav-1" xmlns="http://www.w3.org/2000/svg"><path d="M22.125 8.674v11.2a2.252 2.252 0 01-2.25 2.25h-3.75a1.5 1.5 0 01-1.5-1.5V16.5a.75.75 0 00-.75-.75h-3.75a.75.75 0 00-.75.75v4.125a1.5 1.5 0 01-1.5 1.5h-3.75a2.252 2.252 0 01-2.25-2.25v-11.2a1.507 1.507 0 01.728-1.288l8.625-5.175a1.5 1.5 0 011.544 0l8.625 5.175a1.507 1.507 0 01.728 1.287z"/></symbol><symbol viewBox="0 0 24 24" id="topnav-10" xmlns="http://www.w3.org/2000/svg"><path d="M21.476 16.678l-2.797-2.791c-1-.997-2.697-.598-3.097.698-.3.897-1.299 1.395-2.198 1.196-1.997-.499-4.694-3.09-5.194-5.184-.3-.897.3-1.894 1.199-2.193 1.298-.398 1.698-2.093.699-3.09l-2.797-2.79c-.799-.698-1.998-.698-2.697 0L2.696 4.416c-1.898 1.994.2 7.277 4.895 11.962 4.695 4.685 9.989 6.878 11.987 4.884l1.898-1.894c.699-.797.699-1.993 0-2.691zM16 5h8m-8 0l4-4m-4 4l4 4"/></symbol><symbol viewBox="0 0 24 24" id="topnav-11" xmlns="http://www.w3.org/2000/svg"><path d="M21.476 16.678l-2.797-2.791c-1-.997-2.697-.598-3.097.698-.3.897-1.299 1.395-2.198 1.196-1.997-.499-4.694-3.09-5.194-5.184-.3-.897.3-1.894 1.199-2.193 1.298-.398 1.698-2.093.699-3.09l-2.797-2.79c-.799-.698-1.998-.698-2.697 0L2.696 4.416c-1.898 1.994.2 7.277 4.895 11.962 4.695 4.685 9.989 6.878 11.987 4.884l1.898-1.894c.699-.797.699-1.993 0-2.691zM22 5h-8m8 0l-4-4m4 4l-4 4"/></symbol><symbol viewBox="0 0 24 24" id="topnav-12" xmlns="http://www.w3.org/2000/svg"><path d="M21.515 2.403c-.96-.877-2.582-.16-3.354.614 0 0-1.81 1.718-2.56 2.371-.178.155-.355.1-.355.1l-8.162-1.44c-.35-.051-.842.113-1.093.365l-.728.73c-.25.252-.197.588.12.748l6.022 3.14s.465.232.185.5c-.993.948-2.678 2.651-3.59 3.572-.299.302-.693.257-.693.257l-2.782-.341c-.353-.026-.847.16-1.098.41l-1.261 1.266a.504.504 0 00.084.81l4.622 1.105c.298.193.379.274.572.572l1.029 4.567a.5.5 0 00.806.085l1.262-1.266c.25-.252.435-.747.41-1.102l-.33-2.69s-.049-.343.139-.533c.926-.942 2.77-2.744 3.742-3.731.3-.306.428.078.428.078l3.108 6c.16.318.495.372.746.12l.728-.73c.25-.252.415-.745.365-1.097l-1.38-7.957s-.059-.279.108-.46c.6-.65 2.392-2.604 2.392-2.604.771-.775 1.525-2.539.518-3.459z"/></symbol><symbol viewBox="0 0 24 24" id="topnav-13" xmlns="http://www.w3.org/2000/svg"><path d="M12 2c-5.52.01-9.99 4.48-10 10v7a3.009 3.009 0 003 3h7c5.523 0 10-4.477 10-10S17.523 2 12 2zm1 15a1 1 0 11-2 0v-5h-1a1 1 0 010-2h1a2.002 2.002 0 012 2v5zm0-9a1 1 0 11-2 0V7a1 1 0 112 0v1z"/></symbol><symbol viewBox="0 0 24 24" id="topnav-2" xmlns="http://www.w3.org/2000/svg"><path d="M9.692 16.078c.042.054.083.113.139.195.325.437.644.866.957 1.314l.6.847a.75.75 0 001.224 0l.876-1.235c.219-.307.446-.614.7-.94.04-.058.08-.11.14-.186.87-1.137 1.812-2.22 2.957-3.498A7.095 7.095 0 0011.616.76a7.16 7.16 0 00-6.71 7.2 7.033 7.033 0 002.004 4.825 33.575 33.575 0 012.782 3.294zM12 4.875a3.109 3.109 0 11.007 6.218A3.109 3.109 0 0112 4.875z"/><path d="M12 9.593a1.609 1.609 0 10.008-3.217A1.609 1.609 0 0012 9.593zm4.585 6.067a37.468 37.468 0 00-1.212 1.517c-.241.31-.456.6-.665.893l-.873 1.23a2.25 2.25 0 01-3.671 0l-.6-.847c-.3-.43-.6-.835-.907-1.246 0 0-.122-.175-.15-.207a40.002 40.002 0 00-1.063-1.35c-2.284.725-3.694 1.988-3.694 3.475 0 2.352 3.547 4.125 8.25 4.125 4.703 0 8.25-1.773 8.25-4.125 0-1.48-1.396-2.738-3.665-3.464z"/></symbol><symbol viewBox="0 0 24 24" id="topnav-3" xmlns="http://www.w3.org/2000/svg"><path d="M16.379 12.304a8.566 8.566 0 00-1.108-.555 5.05 5.05 0 001.622-3.732c0-1.34-.509-2.6-1.433-3.547A4.8 4.8 0 0012 3a4.8 4.8 0 00-3.46 1.47 5.05 5.05 0 00-1.433 3.547 5.05 5.05 0 001.622 3.732c-.38.158-.751.343-1.108.556a8.876 8.876 0 00-3.12 3.175 3.68 3.68 0 00-.027 3.659C5.12 20.304 6.287 21 7.593 21h8.814c1.306 0 2.472-.696 3.12-1.861a3.68 3.68 0 00-.027-3.659 8.877 8.877 0 00-3.121-3.176z"/></symbol><symbol viewBox="0 0 24 24" id="topnav-4" xmlns="http://www.w3.org/2000/svg"><path d="M21 13.597V19.5a2.257 2.257 0 01-2.25 2.25H5.25A2.257 2.257 0 013 19.5v-5.903c.11.067.226.125.345.173l6.922 2.88a4.522 4.522 0 003.466 0l6.922-2.88c.12-.048.235-.106.345-.173zM19.5 7.5h-15a.75.75 0 010-1.5h15a.75.75 0 110 1.5z"/><path d="M16.5 7.5h-9a.75.75 0 01-.75-.75V4.5A2.25 2.25 0 019 2.25h6a2.25 2.25 0 012.25 2.25v2.25a.75.75 0 01-.75.75zM8.25 6h7.5V4.5a.75.75 0 00-.75-.75H9a.75.75 0 00-.75.75V6z"/><path d="M19.5 6h-15a2.25 2.25 0 00-2.25 2.25V11a2.245 2.245 0 001.385 2.077l6.923 2.884c.923.382 1.96.382 2.884 0l6.924-2.884A2.246 2.246 0 0021.75 11V8.25A2.25 2.25 0 0019.5 6zM12 12.75a1.5 1.5 0 110-3 1.5 1.5 0 010 3z"/></symbol><symbol viewBox="0 0 24 24" id="topnav-5" xmlns="http://www.w3.org/2000/svg"><path d="M10.347 13.084a5.596 5.596 0 01-.628-2.584c0-1.548.626-3.004 1.764-4.1A6.03 6.03 0 0113 5.336a4.193 4.193 0 00-.827-1.11A4.401 4.401 0 009.1 3c-1.16 0-2.25.435-3.07 1.225A4.077 4.077 0 004.757 7.18a4.076 4.076 0 001.44 3.11 7.643 7.643 0 00-3.754 3.11 2.904 2.904 0 00-.023 3.048C2.995 17.42 4.03 18 5.189 18h1.777a4.516 4.516 0 01.674-2.105 9.258 9.258 0 012.707-2.81z"/><path d="M19.058 13.754a6.892 6.892 0 00-.9-.463 4.265 4.265 0 001.318-3.11 4.265 4.265 0 00-1.165-2.956A3.853 3.853 0 0015.501 6a3.853 3.853 0 00-2.812 1.225 4.265 4.265 0 00-1.165 2.956 4.265 4.265 0 001.318 3.11 6.87 6.87 0 00-.9.463A7.31 7.31 0 009.406 16.4a3.135 3.135 0 00-.021 3.049C9.911 20.42 10.858 21 11.919 21h7.162c1.06 0 2.008-.58 2.534-1.551a3.135 3.135 0 00-.021-3.049 7.31 7.31 0 00-2.536-2.646z"/></symbol><symbol viewBox="0 0 24 24" id="topnav-6" xmlns="http://www.w3.org/2000/svg"><g clip-path="url(#oa)"><path d="M7.289 12.852a5.236 5.236 0 01-.549-2.345c0-1.405.548-2.725 1.54-3.719a5.283 5.283 0 011.326-.966 3.797 3.797 0 00-.722-1.008A3.768 3.768 0 006.2 3.704a3.768 3.768 0 00-2.682 1.11 3.768 3.768 0 00-1.11 2.683 3.768 3.768 0 001.257 2.82 6.89 6.89 0 00-.859.42 6.794 6.794 0 00-2.42 2.401 2.722 2.722 0 00-.02 2.766 2.753 2.753 0 002.418 1.407h1.552a4.21 4.21 0 01.588-1.91 8.266 8.266 0 012.364-2.55zm16.323.286a6.794 6.794 0 00-3.278-2.82 3.798 3.798 0 00.146-5.503 3.798 3.798 0 00-5.364 0 3.776 3.776 0 00-.72 1.007c.482.248.928.572 1.323.966a5.225 5.225 0 011.54 3.72c0 .827-.19 1.624-.548 2.344a8.265 8.265 0 012.364 2.55c.354.597.55 1.25.588 1.91h1.552a2.754 2.754 0 002.418-1.408 2.723 2.723 0 00-.02-2.766z"/><path d="M15.394 13.748c-.276-.16-.563-.3-.858-.42a3.768 3.768 0 001.258-2.821 3.768 3.768 0 00-1.112-2.682A3.768 3.768 0 0012 6.714a3.768 3.768 0 00-2.682 1.11 3.768 3.768 0 00-1.111 2.683 3.768 3.768 0 001.257 2.821 6.793 6.793 0 00-3.278 2.82 2.722 2.722 0 00-.02 2.767 2.753 2.753 0 002.417 1.407h6.833a2.753 2.753 0 002.418-1.407 2.722 2.722 0 00-.02-2.766 6.793 6.793 0 00-2.42-2.401z"/></g><defs><clipPath id="oa"><path d="M0 0h24v24H0z"/></clipPath></defs></symbol><symbol viewBox="0 0 24 24" id="topnav-7" xmlns="http://www.w3.org/2000/svg"><path d="M20 4h-1V3c0-.6-.4-1-1-1s-1 .4-1 1v1H7V3c0-.6-.4-1-1-1s-1 .4-1 1v1H3c-.5 0-1 .4-1 1v14c0 .6.5 1 1 1h6.1C8.4 18.8 8 17.4 8 16c0-4.4 3.6-8 8-8 1.9 0 3.6.7 5 1.8V5c0-.5-.5-1-1-1z"/><path d="M16 10c-3.3 0-6 2.7-6 6s2.7 6 6 6 6-2.7 6-6-2.7-6-6-6zm2 7h-2c-.6 0-1-.4-1-1v-3c0-.6.4-1 1-1s1 .4 1 1v2h1c.6 0 1 .4 1 1s-.4 1-1 1z"/></symbol><symbol viewBox="0 0 24 24" id="topnav-8" xmlns="http://www.w3.org/2000/svg"><path d="M21.737 8.838a1.003 1.003 0 00-.746-.334H3.009c-.284 0-.554.122-.746.334a1.032 1.032 0 00-.259.785l.96 10.449c.048.526.484.928 1.005.928H20.03c.521 0 .957-.402 1.005-.928l.96-10.45a1.032 1.032 0 00-.26-.784zm-6.37 10.019H8.635a1.016 1.016 0 01-1.009-1.023c0-1.39 1.115-2.521 2.486-2.521h.724a2.455 2.455 0 01-1.25-2.144c0-1.35 1.083-2.448 2.414-2.448 1.332 0 2.415 1.098 2.415 2.448 0 .922-.506 1.727-1.251 2.144h.724c1.343 0 2.44 1.085 2.485 2.436a1.017 1.017 0 01-1.006 1.108zm4.691-12.258a.762.762 0 01-.757.768H4.7a.762.762 0 01-.757-.768c0-.424.339-.768.757-.768h14.602c.418 0 .757.344.757.768zM18.06 3.768a.762.762 0 01-.757.767H6.697a.762.762 0 01-.757-.767c0-.424.34-.768.757-.768h10.605c.419 0 .758.344.758.768z"/></symbol><symbol viewBox="0 0 24 24" id="topnav-9" xmlns="http://www.w3.org/2000/svg"><path d="M20.4 2.4h-5.022A3.587 3.587 0 0012 0a3.587 3.587 0 00-3.378 2.4H3.6a2.4 2.4 0 00-2.4 2.4v16.8A2.4 2.4 0 003.6 24h16.8a2.4 2.4 0 002.4-2.4V4.8a2.4 2.4 0 00-2.4-2.4zm-8.4 0a1.2 1.2 0 110 2.4 1.2 1.2 0 010-2.4zM9.6 19.2l-4.8-4.8 1.698-1.698L9.6 15.804l7.902-7.902L19.2 9.6l-9.6 9.6z"/></symbol><symbol viewBox="0 0 16 16" id="viber" xmlns="http://www.w3.org/2000/svg"><path d="M8 1.335c-1.071.013-3.374.19-4.662 1.37-.958.948-1.292 2.35-1.331 4.084-.033 1.728-.072 4.973 3.058 5.856v1.346s-.02.538.337.648c.438.14.688-.275 1.105-.72l.778-.879c2.142.178 3.782-.232 3.97-.293.435-.139 2.883-.451 3.283-3.696.41-3.351-.2-5.463-1.301-6.418h-.007c-.332-.306-1.668-1.279-4.652-1.29 0 0-.222-.014-.578-.008zm.037.942a7.02 7.02 0 01.488.011c2.527.007 3.732.767 4.017 1.023.927.794 1.405 2.697 1.055 5.495-.332 2.713-2.317 2.885-2.685 3.002-.156.05-1.6.406-3.42.289 0 0-1.356 1.634-1.78 2.055-.067.074-.146.095-.196.085-.071-.018-.093-.107-.089-.229l.013-2.233c-2.655-.733-2.498-3.5-2.47-4.946.033-1.446.304-2.628 1.113-3.43 1.088-.982 3.043-1.115 3.953-1.122zm.2 1.446a.166.166 0 100 .332 3.136 3.136 0 012.242.883c.606.588.9 1.378.912 2.411 0 .092.074.167.167.167V7.51a.167.167 0 00.168-.165 3.588 3.588 0 00-1.009-2.646c-.66-.645-1.496-.977-2.48-.977zm-2.198.382a.523.523 0 00-.342.067H5.69a2.61 2.61 0 00-.637.523 1.003 1.003 0 00-.256.525.71.71 0 00.026.302l.01.006c.172.504.396.988.67 1.444a8.48 8.48 0 001.29 1.762l.015.022.024.017.015.018.017.015c.532.505 1.127.94 1.769 1.295.734.4 1.18.588 1.447.667v.004c.078.024.15.034.221.034.228-.016.444-.109.613-.262a2.53 2.53 0 00.517-.638v-.004c.128-.241.085-.469-.1-.623-.37-.323-.77-.61-1.195-.857-.285-.155-.574-.061-.69.095l-.25.315c-.129.156-.361.134-.361.134l-.007.004C7.093 8.527 6.63 6.772 6.63 6.772s-.022-.239.139-.36l.312-.252c.15-.122.254-.41.094-.695a7.498 7.498 0 00-.856-1.194.475.475 0 00-.28-.167zm2.486.495c-.221 0-.221.334.003.334A2.098 2.098 0 0110 5.572 1.94 1.94 0 0110.5 7a.168.168 0 00.167.165l.007.009a.169.169 0 00.167-.167c.015-.662-.191-1.218-.595-1.663C9.84 4.9 9.273 4.65 8.549 4.6h-.024zm.274.898c-.228-.006-.236.335-.01.341.55.029.816.306.851.877a.166.166 0 00.165.163h.007a.168.168 0 00.16-.178c-.039-.744-.445-1.164-1.166-1.202H8.8z"/></symbol><symbol viewBox="0 0 24 24" id="vk" xmlns="http://www.w3.org/2000/svg"><path d="M21.579 6.855c.14-.465 0-.806-.662-.806h-2.193c-.558 0-.813.295-.953.619 0 0-1.115 2.719-2.695 4.482-.51.513-.743.675-1.021.675-.139 0-.341-.162-.341-.627V6.855c0-.558-.161-.806-.626-.806H9.642c-.348 0-.558.258-.558.504 0 .528.79.65.871 2.138v3.228c0 .707-.127.836-.407.836-.743 0-2.551-2.73-3.624-5.853-.209-.607-.42-.852-.98-.852H2.752c-.627 0-.752.295-.752.619 0 .582.743 3.462 3.461 7.27 1.812 2.602 4.363 4.012 6.687 4.012 1.393 0 1.565-.313 1.565-.853v-1.966c0-.626.133-.752.574-.752.324 0 .882.164 2.183 1.417 1.486 1.486 1.732 2.153 2.567 2.153h2.192c.626 0 .939-.313.759-.931-.197-.615-.907-1.51-1.849-2.57-.512-.603-1.277-1.253-1.51-1.578-.325-.42-.231-.604 0-.976.001 0 2.672-3.761 2.95-5.04z"/></symbol><symbol viewBox="0 0 16 16" id="whatsapp" xmlns="http://www.w3.org/2000/svg"><path fill-rule="evenodd" clip-rule="evenodd" d="M12.269 3.755A5.947 5.947 0 008.035 2 5.994 5.994 0 002.05 7.985a5.98 5.98 0 00.799 2.992L2 14.077l3.173-.832c.877.477 1.86.728 2.86.728h.002a5.993 5.993 0 005.533-8.276 5.953 5.953 0 00-1.3-1.942zm-4.234 9.208h-.002c-.89 0-1.765-.24-2.532-.694l-.181-.108-1.883.494.502-1.835-.118-.188a4.965 4.965 0 01-.76-2.647 4.982 4.982 0 016.88-4.597c.604.25 1.152.618 1.613 1.081a4.946 4.946 0 011.455 3.52 4.982 4.982 0 01-4.974 4.974zm2.729-3.726c-.15-.075-.885-.436-1.022-.486-.137-.05-.236-.075-.336.074-.1.15-.387.486-.474.586-.087.1-.175.112-.324.038-.15-.075-.631-.233-1.203-.742a4.505 4.505 0 01-.832-1.036c-.087-.15-.009-.231.066-.306.068-.066.15-.174.224-.262.075-.087.1-.149.15-.249.05-.1.025-.187-.013-.262-.037-.075-.337-.811-.461-1.11-.121-.29-.244-.252-.336-.256a6.418 6.418 0 00-.286-.005.55.55 0 00-.4.186c-.137.15-.523.512-.523 1.248s.536 1.447.61 1.547c.075.1 1.055 1.61 2.555 2.258.358.154.636.246.853.315.358.114.684.098.942.06.287-.043.885-.362 1.01-.711.124-.35.124-.649.087-.711-.038-.063-.138-.101-.287-.176z"/></symbol></svg>