<svg width="24" height="24" viewBox="0 0 24 24" fill="none" xmlns="http://www.w3.org/2000/svg">
<path d="M9.15498 21.1357C9.15493 21.142 9.15451 21.1482 9.15451 21.1545C9.15451 22.7261 10.4285 24.0001 12.0001 24.0001C13.5716 24.0001 14.8456 22.7261 14.8456 21.1545C14.8456 21.1482 14.8452 21.142 14.8452 21.1357H9.15498Z" fill="#333333"/>
<path d="M21.0853 17.5787L18.5243 13.8167C18.5243 12.665 18.5243 9.85103 18.5243 9.12309C18.5243 5.95776 16.27 3.31926 13.2794 2.72466V1.27933C13.2793 0.572812 12.7066 0 12 0C11.2934 0 10.7207 0.572812 10.7207 1.27933V2.72471C7.73008 3.31936 5.47582 5.95786 5.47582 9.12314C5.47582 10.3623 5.47582 13.0985 5.47582 13.8167L2.91481 17.5788C2.64505 17.975 2.61652 18.488 2.84067 18.9117C3.06482 19.3355 3.50486 19.6005 3.98425 19.6005H20.0158C20.4952 19.6005 20.9352 19.3354 21.1594 18.9117C21.3836 18.4879 21.355 17.975 21.0853 17.5787Z" fill="#333333"/>
</svg>
