<svg width="16" height="16" viewBox="0 0 16 16" fill="none" xmlns="http://www.w3.org/2000/svg">
<path d="M8.42997 11.2712C8.34109 11.2551 8.2571 11.2187 8.18449 11.165C8.11188 11.1112 8.0526 11.0415 8.01122 10.9612C7.96007 10.8627 7.9372 10.7519 7.94515 10.6411C7.95309 10.5304 7.99153 10.424 8.05622 10.3337L9.14622 8.83747L7.82497 7.02122C7.81789 7.01159 7.81363 7.00017 7.81267 6.98826C7.81171 6.97634 7.81409 6.96439 7.81954 6.95375C7.825 6.94311 7.8333 6.93419 7.84353 6.92801C7.85376 6.92182 7.86552 6.91861 7.87747 6.91872H8.30747C8.35921 6.91697 8.4095 6.9012 8.45298 6.8731C8.49646 6.845 8.53149 6.80561 8.55433 6.75916C8.57718 6.7127 8.58698 6.66091 8.58269 6.60932C8.5784 6.55773 8.56018 6.50827 8.52997 6.46622L6.69122 3.76747C6.68466 3.75771 6.68087 3.74634 6.68026 3.73459C6.67965 3.72284 6.68225 3.71114 6.68776 3.70075C6.69328 3.69035 6.70152 3.68165 6.71159 3.67557C6.72167 3.66949 6.7332 3.66626 6.74497 3.66622H7.11747C7.15754 3.66549 7.19656 3.6533 7.22992 3.63111C7.26329 3.60892 7.28961 3.57764 7.30577 3.54097C7.32194 3.5043 7.32728 3.46378 7.32115 3.42417C7.31503 3.38457 7.29771 3.34755 7.27122 3.31747L5.59997 1.04997C5.575 1.01651 5.54256 0.989329 5.50524 0.970608C5.46791 0.951887 5.42673 0.942139 5.38497 0.942139C5.34321 0.942139 5.30203 0.951887 5.26471 0.970608C5.22738 0.989329 5.19494 1.01651 5.16997 1.04997L3.49872 3.31747C3.47234 3.34758 3.45511 3.3846 3.44905 3.42416C3.44298 3.46373 3.44834 3.50421 3.46448 3.54083C3.48063 3.57746 3.5069 3.60872 3.5402 3.63093C3.5735 3.65314 3.61245 3.66539 3.65247 3.66622H4.02497C4.03674 3.66626 4.04828 3.66949 4.05835 3.67557C4.06843 3.68165 4.07666 3.69035 4.08218 3.70075C4.0877 3.71114 4.09029 3.72284 4.08968 3.73459C4.08907 3.74634 4.08529 3.75771 4.07872 3.76747L2.23997 6.46622C2.20976 6.50837 2.19158 6.55793 2.18736 6.60961C2.18315 6.66129 2.19306 6.71314 2.21605 6.75962C2.23903 6.8061 2.27422 6.84546 2.31784 6.87349C2.36147 6.90151 2.41189 6.91715 2.46372 6.91872H2.89372C2.90559 6.91883 2.91719 6.92218 2.92729 6.92842C2.93738 6.93465 2.94558 6.94353 2.95099 6.95409C2.95639 6.96465 2.95881 6.97649 2.95797 6.98832C2.95713 7.00015 2.95307 7.01153 2.94622 7.02122L0.983723 9.71872C0.953519 9.76077 0.935299 9.81023 0.931008 9.86182C0.926717 9.91341 0.936517 9.9652 0.95936 10.0117C0.982204 10.0581 1.01723 10.0975 1.06071 10.1256C1.10419 10.1537 1.15448 10.1695 1.20622 10.1712H1.78372C1.79495 10.1714 1.80595 10.1744 1.81565 10.18C1.82536 10.1857 1.83343 10.1937 1.8391 10.2034C1.84476 10.2131 1.84782 10.2241 1.84797 10.2353C1.84813 10.2466 1.84537 10.2576 1.83997 10.2675L0.328723 12.9712C0.298519 13.0133 0.280299 13.0627 0.276008 13.1143C0.271717 13.1659 0.281517 13.2177 0.30436 13.2642C0.327204 13.3106 0.362234 13.35 0.405712 13.3781C0.44919 13.4062 0.499483 13.422 0.551223 13.4237H4.50122V14.7411C4.50121 14.7827 4.50939 14.8239 4.52531 14.8624C4.54122 14.9009 4.56456 14.9358 4.59399 14.9652C4.62341 14.9947 4.65835 15.018 4.69681 15.034C4.73526 15.0499 4.77647 15.0581 4.8181 15.0581H5.95247C5.9941 15.0581 6.03531 15.0499 6.07376 15.034C6.11222 15.018 6.14715 14.9947 6.17658 14.9652C6.20601 14.9358 6.22935 14.9009 6.24526 14.8624C6.26118 14.8239 6.26936 14.7827 6.26935 14.7411V13.4237H7.47872C7.44359 13.3347 7.43014 13.2387 7.43949 13.1435C7.44884 13.0483 7.48071 12.9567 7.53247 12.8762L8.42997 11.2712Z" fill="#79C077"/>
<path d="M15.6837 13.073L14.5132 10.98C14.5088 10.9724 14.5065 10.9637 14.5065 10.9549C14.5066 10.946 14.5089 10.9374 14.5134 10.9297C14.5178 10.9221 14.5242 10.9158 14.5319 10.9115C14.5396 10.9071 14.5483 10.9049 14.5571 10.905H15.0034C15.0434 10.9036 15.0822 10.8913 15.1158 10.8696C15.1494 10.8479 15.1765 10.8175 15.1942 10.7816C15.212 10.7457 15.2197 10.7057 15.2165 10.6658C15.2134 10.6259 15.1995 10.5876 15.1764 10.555L13.657 8.4675C13.6515 8.46004 13.6481 8.45118 13.6474 8.44193C13.6466 8.43268 13.6484 8.42339 13.6526 8.41511C13.6568 8.40683 13.6632 8.39989 13.6712 8.39505C13.6791 8.39022 13.6882 8.38769 13.6975 8.38775H14.0306C14.0707 8.38635 14.1096 8.37412 14.1433 8.35235C14.177 8.33059 14.2042 8.3001 14.2219 8.26413C14.2396 8.22816 14.2473 8.18806 14.244 8.14809C14.2408 8.10811 14.2268 8.06977 14.2035 8.03713L12.7796 5.94713C12.7744 5.9396 12.7714 5.93079 12.7709 5.92166C12.7703 5.91253 12.7723 5.90343 12.7766 5.89535C12.7809 5.88727 12.7873 5.88052 12.7951 5.87583C12.803 5.87114 12.812 5.86869 12.8211 5.86875H13.1094C13.1405 5.86835 13.1708 5.85902 13.1968 5.84188C13.2227 5.82474 13.2432 5.80051 13.2558 5.77206C13.2684 5.74362 13.2726 5.71215 13.2678 5.68141C13.2631 5.65066 13.2496 5.62193 13.229 5.59863L11.9347 3.84313C11.9155 3.81705 11.8904 3.79585 11.8614 3.78125C11.8325 3.76664 11.8005 3.75903 11.7681 3.75903C11.7357 3.75903 11.7037 3.76664 11.6748 3.78125C11.6459 3.79585 11.6207 3.81705 11.6015 3.84313L10.3072 5.59863C10.2866 5.62193 10.2731 5.65066 10.2684 5.68141C10.2636 5.71215 10.2678 5.74362 10.2804 5.77206C10.293 5.80051 10.3135 5.82474 10.3395 5.84188C10.3654 5.85902 10.3958 5.86835 10.4269 5.86875H10.7151C10.7243 5.86869 10.7332 5.87114 10.7411 5.87583C10.7489 5.88052 10.7554 5.88727 10.7596 5.89535C10.7639 5.90343 10.7659 5.91253 10.7654 5.92166C10.7648 5.93079 10.7618 5.9396 10.7566 5.94713L9.33274 8.03638C9.3093 8.06902 9.29518 8.10742 9.29187 8.14746C9.28856 8.18751 9.29618 8.2277 9.31393 8.26375C9.33168 8.2998 9.35889 8.33036 9.39265 8.35215C9.42641 8.37395 9.46545 8.38616 9.50561 8.3875H9.83874C9.84802 8.38744 9.85714 8.38997 9.86507 8.3948C9.873 8.39963 9.87943 8.40658 9.88363 8.41486C9.88784 8.42314 9.88965 8.43243 9.88888 8.44168C9.8881 8.45093 9.88476 8.45979 9.87924 8.46725L8.35986 10.5548C8.33673 10.5874 8.32285 10.6257 8.31971 10.6656C8.31656 10.7055 8.32426 10.7455 8.34199 10.7813C8.35972 10.8172 8.38682 10.8476 8.42042 10.8693C8.45402 10.8911 8.49287 10.9033 8.53286 10.9048H8.97911C8.98793 10.9046 8.99663 10.9069 9.00431 10.9112C9.01199 10.9156 9.01839 10.9219 9.02284 10.9295C9.0273 10.9371 9.02966 10.9458 9.02968 10.9546C9.02971 10.9634 9.0274 10.9721 9.02298 10.9798L7.85248 13.073C7.82935 13.1056 7.81548 13.1439 7.81233 13.1838C7.80919 13.2237 7.81689 13.2637 7.83462 13.2996C7.85235 13.3355 7.87945 13.3659 7.91305 13.3876C7.94665 13.4093 7.9855 13.4216 8.02548 13.423H11.0834V14.79C11.0834 14.8609 11.1115 14.929 11.1617 14.9792C11.2119 15.0293 11.2799 15.0575 11.3509 15.0575H12.1854C12.2563 15.0575 12.3244 15.0293 12.3745 14.9792C12.4247 14.929 12.4529 14.8609 12.4529 14.79V13.4236H15.5107C15.5508 13.4223 15.5898 13.41 15.6235 13.3883C15.6572 13.3665 15.6844 13.336 15.7021 13.3001C15.7199 13.2641 15.7275 13.224 15.7243 13.184C15.7211 13.144 15.707 13.1057 15.6837 13.073Z" fill="#79C077"/>
</svg>
