<svg width="24" height="24" viewBox="0 0 24 24" fill="none" xmlns="http://www.w3.org/2000/svg">
<path d="M21.7326 13.7451L21.2885 13.4846C20.7599 13.1751 20.4441 12.6197 20.4441 12C20.4441 11.3803 20.7599 10.8249 21.2885 10.5154L21.7326 10.2549C22.9452 9.54343 23.3597 7.97314 22.6598 6.74229L21.8154 5.25771C21.1171 4.02943 19.5643 3.60771 18.3552 4.31657L17.911 4.57629C17.3824 4.88657 16.75 4.88657 16.2223 4.57629C15.6937 4.266 15.3779 3.71143 15.3779 3.09171V2.57143C15.3779 1.15371 14.2414 0 12.8448 0H11.1561C9.75946 0 8.62294 1.15371 8.62294 2.57143V3.09257C8.62294 3.71229 8.30714 4.26686 7.77857 4.57714C7.24999 4.88657 6.6184 4.88743 6.08982 4.57714L5.64568 4.31657C4.43654 3.60771 2.88374 4.02943 2.18461 5.25771L1.34023 6.74229C0.64025 7.97314 1.05484 9.54429 2.26735 10.2549L2.71234 10.5154C3.24091 10.8249 3.55671 11.3803 3.55671 12C3.55671 12.6197 3.24091 13.1751 2.71234 13.4846L2.2682 13.7451C1.05568 14.4557 0.641094 16.0269 1.34108 17.2577L2.18545 18.7423C2.88459 19.9706 4.43739 20.3923 5.64568 19.6834L6.08982 19.4237C6.6184 19.1126 7.24999 19.1143 7.77857 19.4237C8.30714 19.734 8.62294 20.2886 8.62294 20.9083V21.4286C8.62294 22.8463 9.75946 24 11.1561 24H12.8448C14.2414 24 15.3779 22.8463 15.3779 21.4286V20.9074C15.3779 20.2877 15.6937 19.7331 16.2223 19.4229C16.75 19.1134 17.3824 19.1126 17.911 19.4229L18.3552 19.6834C19.5643 20.3914 21.1171 19.9697 21.8154 18.7423L22.6598 17.2577C23.3597 16.0269 22.9452 14.4557 21.7326 13.7451ZM12.0004 16.2857C9.67249 16.2857 7.77857 14.3631 7.77857 12C7.77857 9.63686 9.67249 7.71429 12.0004 7.71429C14.3284 7.71429 16.2223 9.63686 16.2223 12C16.2223 14.3631 14.3284 16.2857 12.0004 16.2857Z" fill="#333333"/>
</svg>
