<svg width="24" height="24" viewBox="0 0 24 24" fill="none" xmlns="http://www.w3.org/2000/svg">
<path d="M3.18082 0.757147C1.92469 0.666483 0.75415 1.67156 0.75415 2.99895V21.0332C0.75415 22.2939 1.80933 23.3243 3.07225 23.2838C3.0742 23.2838 3.07616 23.2838 3.07812 23.2838C3.293 23.2753 3.5104 23.238 3.72073 23.1679L8.22341 21.664C9.13888 21.3586 9.76539 20.4995 9.76539 19.5293V17.2729H9.01714C6.96903 17.2731 5.25656 15.5607 5.25684 13.5126V10.5137C5.25656 8.46556 6.96903 6.75898 9.01714 6.75926H9.76539V4.50865C9.76539 3.53853 9.13993 2.67385 8.22341 2.36808L3.72073 0.864249C3.54093 0.804255 3.36026 0.770099 3.18082 0.757147ZM15.2012 5.2745C14.7955 5.25161 14.3894 5.34227 14.0289 5.52245C13.308 5.88293 12.7642 6.60175 12.7642 7.50751V8.26162H9.01714C7.78124 8.26162 6.7592 9.27778 6.7592 10.5137V13.5126C6.7592 14.7484 7.78124 15.7705 9.01714 15.7705H12.7642V16.5187C12.7642 18.3302 14.9257 19.4132 16.3749 18.3263L22.3858 13.8177C22.9701 13.3795 23.3046 12.6843 23.2837 11.9544C23.2642 11.2702 22.9356 10.6267 22.3858 10.2144L16.3749 5.70585C16.0126 5.43411 15.6069 5.2974 15.2012 5.2745Z" fill="#7D7D7D"/>
</svg>
