<svg width="21" height="21" viewBox="0 0 21 21" fill="none" xmlns="http://www.w3.org/2000/svg">
<path d="M19.6776 1.94891C19.6692 1.88394 19.6546 1.82136 19.6305 1.76265C19.6297 1.76118 19.6297 1.75916 19.6294 1.75732C19.6294 1.75695 19.629 1.75658 19.6286 1.75621C19.6021 1.69437 19.5658 1.63824 19.5249 1.58616C19.5148 1.57382 19.5049 1.56168 19.4942 1.55008C19.4505 1.50149 19.403 1.45659 19.3479 1.41996C19.3464 1.41886 19.3445 1.41849 19.343 1.41739C19.2897 1.38279 19.2309 1.35665 19.1692 1.33604C19.1538 1.3307 19.1389 1.3261 19.1232 1.32205C19.0585 1.30475 18.992 1.29224 18.9219 1.29224H13.5625C13.1399 1.29224 12.7969 1.62996 12.7969 2.04608C12.7969 2.46221 13.1399 2.79993 13.5625 2.79993H17.0732L12.5036 7.29926C11.2851 6.33966 9.78484 5.81531 8.20312 5.81531C4.40379 5.81531 1.3125 8.85904 1.3125 12.5999C1.3125 16.3408 4.40379 19.3845 8.20312 19.3845C12.0025 19.3845 15.0938 16.3408 15.0938 12.5999C15.0938 11.0433 14.5616 9.56651 13.5862 8.36562L18.1562 3.86591V7.32301C18.1562 7.73913 18.4992 8.07685 18.9219 8.07685C19.3445 8.07685 19.6875 7.73913 19.6875 7.32301V2.04608C19.6875 2.03025 19.6838 2.01516 19.6828 1.9997C19.6817 1.9824 19.6798 1.96584 19.6776 1.94891ZM8.20312 17.8769C5.24773 17.8769 2.84375 15.5099 2.84375 12.5999C2.84375 9.69 5.24773 7.32301 8.20312 7.32301C9.634 7.32301 10.9811 7.87146 11.9941 8.8653C13.0055 9.86466 13.5625 11.1911 13.5625 12.5999C13.5625 15.5099 11.1585 17.8769 8.20312 17.8769Z" fill="#79C077"/>
</svg>
