<svg width="16" height="16" viewBox="0 0 16 16" fill="none" xmlns="http://www.w3.org/2000/svg">
<path d="M8.46507 1.26059V0.729417C8.46507 0.436049 8.22726 0.198242 7.9339 0.198242H0.531175C0.237807 0.198242 0 0.436049 0 0.729417V1.26059C0 1.55396 0.237807 1.79177 0.531175 1.79177H7.9339C8.22726 1.79177 8.46507 1.55396 8.46507 1.26059Z" fill="black"/>
<path d="M6.9364 3.54443H0.531175C0.237807 3.54443 0 3.78224 0 4.07561V4.60678C0 4.90015 0.237807 5.13796 0.531175 5.13796H6.9364C7.22977 5.13796 7.46758 4.90015 7.46758 4.60678V4.07561C7.46758 3.78224 7.22977 3.54443 6.9364 3.54443Z" fill="black"/>
<path d="M5.93881 6.89111H0.531176C0.237807 6.89111 0 7.12892 0 7.42229V7.95346C0 8.24683 0.237807 8.48464 0.531176 8.48464H5.93881C6.23218 8.48464 6.46998 8.24683 6.46998 7.95346V7.42229C6.46998 7.12892 6.23218 6.89111 5.93881 6.89111Z" fill="black"/>
<path d="M4.94126 10.6094H0.531175C0.237807 10.6094 0 10.8472 0 11.1406V11.6717C0 11.9651 0.237807 12.2029 0.531175 12.2029H4.94126C5.23457 12.2029 5.47243 11.9651 5.47243 11.6717V11.1406C5.47243 10.8472 5.23462 10.6094 4.94126 10.6094Z" fill="black"/>
<path d="M3.94365 13.9556H0.531174C0.237807 13.9556 0 14.1934 0 14.4867V15.0179C0 15.3113 0.237807 15.5491 0.531174 15.5491H3.94365C4.23696 15.5491 4.47482 15.3113 4.47482 15.0179V14.4867C4.47482 14.1934 4.23702 13.9556 3.94365 13.9556Z" fill="black"/>
<path d="M15.8444 11.5198L15.4688 11.1442C15.3692 11.0446 15.2341 10.9886 15.0932 10.9886C14.9524 10.9886 14.8172 11.0446 14.7176 11.1442L12.8907 12.9711V0.995042C12.8907 0.701674 12.6529 0.463867 12.3595 0.463867H11.8284C11.535 0.463867 11.2972 0.701674 11.2972 0.995042V12.971L9.47032 11.1442C9.37067 11.0446 9.2356 10.9886 9.09473 10.9886C8.95386 10.9886 8.81873 11.0446 8.71913 11.1442L8.34349 11.5198C8.13611 11.7272 8.13611 12.0635 8.34349 12.2709L11.7184 15.6458C11.8221 15.7496 11.958 15.8014 12.094 15.8014C12.2299 15.8014 12.3659 15.7496 12.4696 15.6458L15.8444 12.2709C16.0519 12.0635 16.0519 11.7272 15.8444 11.5198Z" fill="black"/>
</svg>
