<svg width="24" height="24" viewBox="0 0 24 24" fill="none" xmlns="http://www.w3.org/2000/svg">
<g clip-path="url(#clip0_522_5262)">
<path d="M7.28902 12.8516C6.93014 12.1324 6.74044 11.3344 6.74044 10.5071C6.74044 9.10233 7.28756 7.7816 8.2809 6.78826C8.67586 6.3933 9.12282 6.06902 9.60603 5.82165C9.42457 5.45342 9.18251 5.11303 8.88368 4.8142C8.16719 4.09772 7.21468 3.70312 6.20138 3.70312C5.18826 3.70312 4.23557 4.09772 3.51926 4.8142C2.80277 5.53069 2.40818 6.4832 2.40818 7.49651C2.40818 8.50962 2.80277 9.46232 3.51926 10.1786C3.56687 10.2264 3.61594 10.2726 3.66575 10.3174C3.37058 10.4368 3.08329 10.5765 2.80698 10.7375C1.81163 11.317 0.975022 12.1472 0.387439 13.1381C-0.122142 13.9978 -0.129832 15.0318 0.367114 15.9039C0.869004 16.785 1.77299 17.3111 2.78501 17.3111H4.33682C4.37454 16.6517 4.57028 15.9992 4.92477 15.4011C5.52224 14.3933 6.33193 13.5221 7.28902 12.8516Z" fill="#A1B2C8"/>
<path d="M23.6121 13.1382C23.0247 12.1473 22.188 11.3172 21.1926 10.7375C20.9163 10.5766 20.6292 10.4369 20.334 10.3175C20.3836 10.2728 20.4327 10.2267 20.4805 10.1787C21.9594 8.69976 21.9594 6.29322 20.4805 4.81428C19.0014 3.33534 16.595 3.33534 15.1159 4.81428C14.8136 5.11677 14.5741 5.45826 14.3954 5.82246C14.8779 6.06983 15.3243 6.39374 15.7189 6.78833C16.7122 7.78168 17.2591 9.10241 17.2591 10.5072C17.2591 11.3345 17.0694 12.1324 16.7107 12.8517C17.6678 13.5222 18.4775 14.3934 19.075 15.4014C19.4293 15.9992 19.625 16.6518 19.6628 17.3112H21.2146C22.2268 17.3112 23.1306 16.7851 23.6327 15.904C24.1294 15.0319 24.1217 13.9981 23.6121 13.1382Z" fill="#A1B2C8"/>
<path d="M15.3944 13.748C15.1181 13.5873 14.8308 13.4475 14.5357 13.3282C14.5855 13.2833 14.6344 13.2372 14.6821 13.1894C15.3986 12.4729 15.7932 11.5204 15.7932 10.5071C15.7932 9.49395 15.3986 8.54125 14.6821 7.82495C13.9658 7.10846 13.0131 6.71387 12 6.71387C10.9867 6.71387 10.034 7.10846 9.31772 7.82495C8.60123 8.54144 8.20664 9.49395 8.20664 10.5071C8.20664 11.5204 8.60123 12.4731 9.31772 13.1894C9.36533 13.2372 9.4144 13.2833 9.46421 13.3282C9.16904 13.4475 8.88175 13.5873 8.60545 13.7482C7.61009 14.3277 6.77348 15.1579 6.1859 16.1489C5.67632 17.0086 5.66863 18.0426 6.16558 18.9147C6.66747 19.7958 7.57145 20.3218 8.58347 20.3218H15.4164C16.4284 20.3218 17.3322 19.7958 17.8343 18.9147C18.3311 18.0426 18.3234 17.0086 17.8138 16.1489C17.2264 15.1579 16.3898 14.3277 15.3944 13.748Z" fill="#A1B2C8"/>
</g>
<defs>
<clipPath id="clip0_522_5262">
<rect width="24" height="24" fill="white"/>
</clipPath>
</defs>
</svg>
