<svg width="24" height="24" viewBox="0 0 24 24" fill="none" xmlns="http://www.w3.org/2000/svg">
<path d="M20.3999 2.40002H15.3779C14.8858 1.008 13.5658 0 11.9998 0C10.4338 0 9.1138 1.008 8.62184 2.40002H3.59985C2.27387 2.40002 1.19983 3.474 1.19983 4.80003V21.6C1.19983 22.926 2.27381 24 3.59985 24H20.3999C21.7258 24 22.7999 22.926 22.7999 21.6V4.79998C22.7998 3.474 21.7258 2.40002 20.3999 2.40002ZM11.9998 2.40002C12.6598 2.40002 13.1998 2.934 13.1998 3.6C13.1998 4.266 12.6598 4.79998 11.9998 4.79998C11.3398 4.79998 10.7998 4.266 10.7998 3.6C10.7998 2.934 11.3398 2.40002 11.9998 2.40002ZM9.59986 19.2L4.79983 14.4L6.49784 12.702L9.59986 15.804L17.5019 7.90199L19.1999 9.60001L9.59986 19.2Z" fill="#A1B2C8"/>
</svg>
