<svg width="24" height="24" viewBox="0 0 24 24" fill="none" xmlns="http://www.w3.org/2000/svg">
<path d="M12 2C6.48093 2.00909 2.00909 6.48093 2 12V19C2.00483 20.6548 3.34517 21.9952 5 22H12C17.5229 22 22 17.5228 22 12C22 6.47718 17.5229 2 12 2ZM13 17C13 17.5523 12.5523 18 12 18C11.4477 18 11 17.5523 11 17V12H10C9.44775 12 9.00004 11.5523 9.00004 11C9.00004 10.4477 9.44775 10 10 10H11C12.1041 10.0012 12.9989 10.8959 13 12V17ZM13 8.00001C13 8.55229 12.5523 9 12 9C11.4477 9 11 8.55229 11 8.00001V7.00002C11 6.44774 11.4477 6.00004 12 6.00004C12.5523 6.00004 13 6.44774 13 7.00002V8.00001H13Z" fill="#A1B2C8"/>
</svg>
