<svg width="24" height="24" viewBox="0 0 24 24" fill="none" xmlns="http://www.w3.org/2000/svg">
<path d="M20 4H19V3C19 2.4 18.6 2 18 2C17.4 2 17 2.4 17 3V4H7V3C7 2.4 6.6 2 6 2C5.4 2 5 2.4 5 3V4H3C2.5 4 2 4.4 2 5V19C2 19.6 2.5 20 3 20H9.1C8.4 18.8 8 17.4 8 16C8 11.6 11.6 8 16 8C17.9 8 19.6 8.7 21 9.8V5C21 4.5 20.5 4 20 4Z" fill="#A1B2C8"/>
<path d="M16 10C12.7 10 10 12.7 10 16C10 19.3 12.7 22 16 22C19.3 22 22 19.3 22 16C22 12.7 19.3 10 16 10ZM18 17H16C15.4 17 15 16.6 15 16V13C15 12.4 15.4 12 16 12C16.6 12 17 12.4 17 13V15H18C18.6 15 19 15.4 19 16C19 16.6 18.6 17 18 17Z" fill="#A1B2C8"/>
</svg>
