<svg width="24" height="24" viewBox="0 0 24 24" fill="none" xmlns="http://www.w3.org/2000/svg">
<path d="M21 13.5974V19.4999C20.9982 20.0961 20.7606 20.6674 20.339 21.0889C19.9175 21.5105 19.3462 21.7481 18.75 21.7499H5.25C4.65381 21.7481 4.08255 21.5105 3.66098 21.0889C3.23941 20.6674 3.00178 20.0961 3 19.4999V13.5974C3.11032 13.6638 3.22568 13.7215 3.345 13.7699L10.2675 16.6499C10.8167 16.8777 11.4054 16.9949 12 16.9949C12.5946 16.9949 13.1833 16.8777 13.7325 16.6499L20.655 13.7699C20.7743 13.7215 20.8897 13.6638 21 13.5974Z" fill="#A1B2C8"/>
<path d="M19.5 7.5H4.5C4.30109 7.5 4.11032 7.42098 3.96967 7.28033C3.82902 7.13968 3.75 6.94891 3.75 6.75C3.75 6.55109 3.82902 6.36032 3.96967 6.21967C4.11032 6.07902 4.30109 6 4.5 6H19.5C19.6989 6 19.8897 6.07902 20.0303 6.21967C20.171 6.36032 20.25 6.55109 20.25 6.75C20.25 6.94891 20.171 7.13968 20.0303 7.28033C19.8897 7.42098 19.6989 7.5 19.5 7.5Z" fill="#A1B2C8"/>
<path d="M16.5 7.5H7.5C7.30109 7.5 7.11032 7.42098 6.96967 7.28033C6.82902 7.13968 6.75 6.94891 6.75 6.75V4.5C6.75 3.90326 6.98705 3.33097 7.40901 2.90901C7.83097 2.48705 8.40326 2.25 9 2.25H15C15.5967 2.25 16.169 2.48705 16.591 2.90901C17.0129 3.33097 17.25 3.90326 17.25 4.5V6.75C17.25 6.94891 17.171 7.13968 17.0303 7.28033C16.8897 7.42098 16.6989 7.5 16.5 7.5ZM8.25 6H15.75V4.5C15.75 4.30109 15.671 4.11032 15.5303 3.96967C15.3897 3.82902 15.1989 3.75 15 3.75H9C8.80109 3.75 8.61032 3.82902 8.46967 3.96967C8.32902 4.11032 8.25 4.30109 8.25 4.5V6Z" fill="#A1B2C8"/>
<path d="M19.5 6H4.5C3.90326 6 3.33097 6.23705 2.90901 6.65901C2.48705 7.08097 2.25 7.65327 2.25 8.25V11.0003C2.24943 11.4446 2.38068 11.879 2.62713 12.2487C2.87358 12.6184 3.22416 12.9067 3.6345 13.077L10.5578 15.9615C11.4813 16.3435 12.5187 16.3435 13.4423 15.9615L20.3655 13.077C20.7758 12.9067 21.1264 12.6184 21.3729 12.2487C21.6193 11.879 21.7506 11.4446 21.75 11.0003V8.25C21.75 7.65327 21.5129 7.08097 21.091 6.65901C20.669 6.23705 20.0967 6 19.5 6ZM12 12.75C11.7033 12.75 11.4133 12.662 11.1666 12.4972C10.92 12.3324 10.7277 12.0981 10.6142 11.824C10.5007 11.5499 10.4709 11.2483 10.5288 10.9574C10.5867 10.6664 10.7296 10.3991 10.9393 10.1893C11.1491 9.97957 11.4164 9.83671 11.7074 9.77883C11.9983 9.72095 12.2999 9.75066 12.574 9.86419C12.8481 9.97772 13.0824 10.17 13.2472 10.4167C13.412 10.6633 13.5 10.9533 13.5 11.25C13.5 11.6478 13.342 12.0294 13.0607 12.3107C12.7794 12.592 12.3978 12.75 12 12.75Z" fill="#A1B2C8"/>
</svg>
