<svg width="24" height="24" viewBox="0 0 24 24" fill="none" xmlns="http://www.w3.org/2000/svg">
<path d="M21.7367 8.83844C21.5455 8.62567 21.2747 8.5043 20.9906 8.5043H3.00938C2.72545 8.5043 2.45453 8.62567 2.26326 8.83844C2.07198 9.0512 1.97801 9.33592 2.00436 9.62257L2.96376 20.0715C3.01211 20.5977 3.44755 21 3.96878 21H20.0312C20.5525 21 20.9879 20.5976 21.0362 20.0715L21.9956 9.62257C22.022 9.33592 21.928 9.0512 21.7367 8.83844ZM15.3666 18.8569C15.3659 18.8568 15.3653 18.8568 15.3646 18.8569H8.63548C8.07801 18.8569 7.62612 18.3986 7.62612 17.8335C7.62612 16.4437 8.74126 15.313 10.112 15.313H10.8364C10.0914 14.8957 9.5855 14.0911 9.5855 13.1688C9.5855 11.8189 10.6686 10.7206 12.0001 10.7206C13.3316 10.7206 14.4147 11.8188 14.4147 13.1688C14.4147 14.0911 13.9088 14.8957 13.1638 15.313H13.8882C15.231 15.313 16.3285 16.3981 16.3727 17.7489C16.3749 17.7768 16.3761 17.805 16.3761 17.8335C16.376 18.3987 15.9241 18.8569 15.3666 18.8569ZM20.0582 6.59902C20.0582 7.02302 19.7192 7.36657 19.3011 7.36657H4.69896C4.28088 7.36657 3.94193 7.02302 3.94193 6.59902C3.94193 6.17502 4.28088 5.83146 4.69896 5.83146H19.3011C19.7192 5.83146 20.0582 6.17502 20.0582 6.59902ZM18.0596 3.76756C18.0596 4.19155 17.7207 4.53511 17.3026 4.53511H6.6975C6.27942 4.53511 5.94048 4.19155 5.94048 3.76756C5.94048 3.34356 6.27942 3 6.6975 3H17.3025C17.7207 3 18.0596 3.34356 18.0596 3.76756Z" fill="#A1B2C8"/>
</svg>
