<svg width="24" height="24" viewBox="0 0 24 24" fill="none" xmlns="http://www.w3.org/2000/svg">
<path d="M21.5146 2.40298C20.5543 1.52583 18.933 2.24218 18.1612 3.01702C18.1612 3.01702 16.3513 4.7352 15.6005 5.38825C15.4227 5.54289 15.2464 5.48751 15.2464 5.48751L7.08433 4.0471C6.73344 3.99691 6.2417 4.1614 5.99143 4.41291L5.26287 5.14376C5.01207 5.39499 5.06604 5.73141 5.38254 5.89114L11.4054 9.03132C11.4054 9.03132 11.8698 9.26281 11.5899 9.53036C10.5971 10.4791 8.91235 12.1825 8.00018 13.1033C7.70117 13.4051 7.3066 13.3598 7.3066 13.3598L4.52535 13.0188C4.17163 12.9934 3.67782 13.1783 3.42702 13.4295L2.16571 14.6955C1.91523 14.9468 1.95294 15.311 2.25018 15.5049L6.87241 16.6096C7.16965 16.8034 7.25071 16.8845 7.44371 17.1824L8.47266 21.7491C8.66587 22.0471 9.02887 22.085 9.27935 21.8338L10.541 20.5676C10.7912 20.3164 10.9759 19.8208 10.951 19.4664L10.6211 16.7756C10.6211 16.7756 10.5722 16.4333 10.7596 16.2427C11.6859 15.3009 13.5302 13.4992 14.5016 12.512C14.8029 12.2059 14.9305 12.5896 14.9305 12.5896L18.0385 18.59C18.1975 18.9079 18.5331 18.9621 18.7836 18.7108L19.512 17.9795C19.7621 17.7281 19.9268 17.2346 19.8772 16.8829L18.4974 8.92591C18.4974 8.92591 18.4381 8.64743 18.6053 8.46614C19.2046 7.81636 20.9966 5.86166 20.9966 5.86166C21.7681 5.08714 22.5221 3.3231 21.5146 2.40298Z" fill="#A1B2C8"/>
</svg>
