<svg width="24" height="24" viewBox="0 0 24 24" fill="none" xmlns="http://www.w3.org/2000/svg">
<path d="M9.69221 16.0785C9.73421 16.1318 9.77546 16.191 9.83096 16.2728C10.1565 16.71 10.4752 17.139 10.788 17.5868L11.388 18.4343C11.4573 18.5321 11.549 18.6119 11.6555 18.667C11.762 18.722 11.8801 18.7508 12 18.7508C12.1198 18.7508 12.238 18.722 12.3444 18.667C12.4509 18.6119 12.5427 18.5321 12.612 18.4343L13.488 17.199C13.707 16.8923 13.9342 16.5855 14.1885 16.2585C14.2275 16.2015 14.268 16.149 14.328 16.0725C15.1987 14.9363 16.14 13.8533 17.2845 12.5753C18.2196 11.5304 18.8242 10.2317 19.0217 8.8434C19.2193 7.45508 19.0011 6.03935 18.3945 4.77501C17.788 3.51066 16.8204 2.4544 15.6139 1.73963C14.4075 1.02486 13.0162 0.683636 11.616 0.759049C9.78918 0.874043 8.07582 1.68434 6.82795 3.02343C5.58008 4.36253 4.89249 6.12871 4.90646 7.95905C4.93005 9.7652 5.64761 11.4931 6.91046 12.7845C7.90736 13.8218 8.83653 14.9221 9.69221 16.0785ZM12 4.87505C12.6151 4.87431 13.2167 5.0561 13.7285 5.3974C14.2403 5.73871 14.6393 6.2242 14.8751 6.7924C15.1109 7.3606 15.1727 7.98598 15.0529 8.58936C14.9331 9.19275 14.6369 9.74702 14.2019 10.182C13.7669 10.617 13.2127 10.9132 12.6093 11.033C12.0059 11.1528 11.3805 11.0909 10.8123 10.8552C10.2441 10.6194 9.75862 10.2204 9.41732 9.70859C9.07601 9.19678 8.89422 8.59522 8.89496 7.98005C8.89595 7.15686 9.2234 6.36766 9.80549 5.78558C10.3876 5.20349 11.1768 4.87604 12 4.87505Z" fill="#A1B2C8"/>
<path d="M12 9.59322C12.3182 9.59396 12.6295 9.50033 12.8944 9.32418C13.1594 9.14802 13.3662 8.89725 13.4886 8.60358C13.6111 8.3099 13.6437 7.98651 13.5823 7.67431C13.521 7.3621 13.3684 7.07509 13.144 6.84958C12.9195 6.62407 12.6332 6.47018 12.3213 6.40738C12.0094 6.34458 11.6858 6.37568 11.3916 6.49676C11.0973 6.61784 10.8456 6.82345 10.6682 7.08759C10.4908 7.35173 10.3958 7.66255 10.395 7.98072C10.3946 8.40721 10.5634 8.81645 10.8642 9.11872C11.1651 9.42099 11.5735 9.59163 12 9.59322Z" fill="#A1B2C8"/>
<path d="M16.5855 15.6606C16.2105 16.1061 15.8558 16.5434 15.5175 16.9844C15.4718 17.0436 15.3727 17.1771 15.3727 17.1771C15.132 17.4876 14.9167 17.7771 14.7083 18.0696L13.8353 19.3004C13.6273 19.5937 13.3522 19.8329 13.0328 19.998C12.7134 20.1631 12.3591 20.2493 11.9996 20.2493C11.6401 20.2493 11.2858 20.1631 10.9664 19.998C10.6471 19.8329 10.3719 19.5937 10.164 19.3004L9.564 18.4529C9.264 18.0224 8.964 17.6181 8.65725 17.2071C8.65725 17.2071 8.535 17.0316 8.50725 17.0001C8.145 16.5179 7.79325 16.0754 7.4445 15.6501C5.16 16.3754 3.75 17.6384 3.75 19.1249C3.75 21.4769 7.29675 23.2499 12 23.2499C16.7032 23.2499 20.25 21.4769 20.25 19.1249C20.25 17.6451 18.8535 16.3874 16.5855 15.6606Z" fill="#A1B2C8"/>
</svg>
