<svg width="24" height="24" viewBox="0 0 24 24" fill="none" xmlns="http://www.w3.org/2000/svg">
<path d="M22.125 8.67441V19.8749C22.1244 20.4715 21.8872 21.0434 21.4653 21.4652C21.0435 21.8871 20.4716 22.1243 19.875 22.1249H16.125C15.7272 22.1249 15.3456 21.9669 15.0643 21.6856C14.783 21.4043 14.625 21.0227 14.625 20.6249V16.4999C14.625 16.301 14.546 16.1102 14.4053 15.9696C14.2647 15.8289 14.0739 15.7499 13.875 15.7499H10.125C9.92609 15.7499 9.73532 15.8289 9.59467 15.9696C9.45402 16.1102 9.375 16.301 9.375 16.4999V20.6249C9.375 21.0227 9.21696 21.4043 8.93566 21.6856C8.65436 21.9669 8.27282 22.1249 7.875 22.1249H4.125C3.52845 22.1243 2.9565 21.8871 2.53467 21.4652C2.11284 21.0434 1.8756 20.4715 1.875 19.8749V8.67441C1.87556 8.41539 1.94287 8.16089 2.07043 7.93546C2.19799 7.71002 2.3815 7.52127 2.60325 7.38741L11.2282 2.21241C11.4614 2.07246 11.7282 1.99854 12.0002 1.99854C12.2721 1.99854 12.539 2.07246 12.7721 2.21241L21.3971 7.38741C21.6188 7.52132 21.8022 7.71009 21.9297 7.93552C22.0572 8.16095 22.1245 8.41543 22.125 8.67441V8.67441Z" fill="#A1B2C8"/>
</svg>
