<svg width="21" height="21" viewBox="0 0 21 21" fill="none" xmlns="http://www.w3.org/2000/svg">
<path d="M15.0826 12.1693C17.7225 9.53022 17.7225 5.2361 15.0826 2.59702C12.4427 -0.0421048 8.14724 -0.0421048 5.50728 2.59702C2.86736 5.2361 2.86736 9.53022 5.50728 12.1693C6.62473 13.2864 8.0388 13.9305 9.49833 14.1019V16.368H7.90524C7.46531 16.368 7.10869 16.7245 7.10869 17.1643C7.10869 17.604 7.46531 17.9606 7.90524 17.9606H9.49833V20.2037C9.49837 20.6435 9.85498 21.0001 10.295 21.0001C10.7349 21.0001 11.0915 20.6435 11.0915 20.2037V17.9606H12.6846C13.1246 17.9606 13.4812 17.604 13.4812 17.1643C13.4812 16.7245 13.1246 16.368 12.6846 16.368H11.0915V14.1019C12.5511 13.9305 13.9651 13.2864 15.0826 12.1693ZM6.63381 11.0431C4.61504 9.025 4.61504 5.74128 6.63381 3.72314C8.65254 1.70509 11.9373 1.70497 13.9561 3.72314C15.9749 5.74128 15.9749 9.025 13.9561 11.0431C11.9373 13.0612 8.65258 13.0612 6.63381 11.0431Z" fill="#EE8C8C"/>
</svg>
